<?xml version="1.0" encoding="UTF-8"?>
<svg id="Layer_1" data-name="Layer 1" xmlns="http://www.w3.org/2000/svg" xmlns:xlink="http://www.w3.org/1999/xlink" viewBox="0 0 623.78 534.18">
  <defs>
    <style>
      .cls-1 {
        fill: url(#linear-gradient);
      }

      .cls-2 {
        fill: url(#linear-gradient-3);
      }

      .cls-3 {
        fill: url(#linear-gradient-4);
      }

      .cls-4 {
        fill: url(#linear-gradient-2);
      }
    </style>
    <linearGradient id="linear-gradient" x1="302.79" y1="268.11" x2="2.79" y2="268.11" gradientUnits="userSpaceOnUse">
      <stop offset="0" stop-color="#ffcb15"/>
      <stop offset=".99" stop-color="#d40035" stop-opacity=".89"/>
    </linearGradient>
    <linearGradient id="linear-gradient-2" x1=".34" y1="326.15" x2="261.69" y2="326.15" gradientUnits="userSpaceOnUse">
      <stop offset="0" stop-color="#ffcb15"/>
      <stop offset="1" stop-color="#d40035" stop-opacity=".89"/>
    </linearGradient>
    <linearGradient id="linear-gradient-3" x1="921.54" y1="405.95" x2="621.54" y2="405.95" gradientTransform="translate(1248.06 663.4) rotate(179.21)" xlink:href="#linear-gradient"/>
    <linearGradient id="linear-gradient-4" x1="619.08" y1="463.99" x2="880.43" y2="463.99" gradientTransform="translate(1248.06 663.4) rotate(179.21)" xlink:href="#linear-gradient-2"/>
  </defs>
  <g>
    <path class="cls-1" d="M150,118.11c-51.38,0-96.72,25.83-123.75,65.22,6.52,2.89,12.61,6.84,18.14,11.69,15.09-43.81,56.68-75.29,105.61-75.29,61.68,0,111.69,50.01,111.69,111.69s-48.83,110.5-109.5,111.66c-.73,.02-1.46,.03-2.19,.03s-1.46-.01-2.19-.03c-.63-.02-1.26-.04-1.89-.08-.55-.03-1.1-.06-1.65-.11-.59-.04-1.17-.09-1.75-.15-.34-.03-.68-.07-1.01-.11-.38-.04-.75-.08-1.13-.13-1.05-.14-2.11-.29-3.15-.48-.43-.07-.86-.15-1.29-.23-1.04-.19-2.07-.41-3.1-.66-.37-.08-.73-.17-1.09-.26-.39-.1-.77-.19-1.16-.3-.55-.14-1.1-.3-1.64-.46-.63-.18-1.26-.37-1.89-.58-.46-.14-.91-.29-1.36-.45-.65-.21-1.29-.44-1.93-.69-.92-.34-1.84-.7-2.74-1.08-1.06-.44-2.11-.91-3.15-1.41-1.01-.48-2.01-.98-3-1.51-.49-.26-.98-.53-1.47-.8-.46-.26-.92-.52-1.37-.78-.04-.02-.07-.04-.11-.07-.95-.56-1.88-1.13-2.79-1.73-.48-.31-.95-.62-1.42-.95-.45-.31-.91-.62-1.35-.95-.41-.29-.82-.58-1.22-.88-.55-.41-1.09-.83-1.63-1.26-.81-.64-1.61-1.3-2.39-1.97-.42-.36-.83-.72-1.25-1.1-.82-.73-1.63-1.49-2.42-2.27-.79-.78-1.57-1.57-2.32-2.38-.38-.41-.75-.82-1.12-1.23-.37-.42-.73-.83-1.09-1.26-.36-.42-.72-.84-1.07-1.27-.35-.43-.7-.87-1.04-1.31-.3-.38-.59-.76-.88-1.15-.39-.51-.77-1.03-1.13-1.55-.31-.44-.62-.89-.93-1.34-.31-.46-.62-.92-.92-1.39-.3-.47-.6-.94-.89-1.41-.58-.95-1.15-1.91-1.69-2.89-.82-1.47-1.59-2.97-2.3-4.51-.66-1.4-1.27-2.81-1.84-4.25-.08-.18-.15-.35-.21-.53-.22-.56-.43-1.12-.63-1.69-.2-.55-.39-1.1-.57-1.66-.15-.43-.3-.88-.42-1.32-.15-.46-.3-.93-.43-1.4-.13-.42-.25-.84-.36-1.27-.08-.3-.16-.61-.24-.91-.12-.45-.23-.9-.33-1.35-.14-.55-.26-1.11-.38-1.67-.11-.48-.2-.95-.29-1.43-.05-.21-.09-.42-.12-.64-.09-.44-.17-.88-.24-1.32v-.03c-.09-.51-.17-1.01-.24-1.51-.03-.2-.06-.4-.08-.6-.06-.44-.12-.88-.17-1.33-.07-.58-.13-1.16-.19-1.74v122.94c21.98,12.65,47.48,19.88,74.66,19.88,82.84,0,150-67.16,150-150S232.84,118.11,150,118.11ZM.34,278.29v-20.36c-.23,3.36-.34,6.76-.34,10.18s.11,6.82,.34,10.18Z"/>
    <path class="cls-4" d="M261.69,230.94c0,61.58-48.83,111.62-109.5,112.8,40.41-1.17,72.81-34.63,72.81-75.73s-33.58-75.76-75-75.76c-1.97,0-3.93,.08-5.86,.23-.6,.04-1.21,.1-1.81,.16-1.13,.11-2.25,.25-3.36,.42-.39,.05-.77,.11-1.15,.18-.5,.08-.99,.16-1.49,.25-.39,.08-.79,.15-1.18,.23-.53,.11-1.06,.22-1.58,.34-.34,.07-.67,.15-1,.23-.38,.09-.75,.18-1.13,.28-.1,.02-.2,.05-.3,.07-.56,.15-1.12,.3-1.67,.46-.42,.11-.85,.24-1.27,.37-.34,.1-.67,.2-.99,.31-.78,.24-1.54,.51-2.3,.79-.42,.14-.84,.29-1.25,.45-.47,.17-.94,.35-1.4,.55-.49,.19-.97,.39-1.45,.61-.56,.23-1.12,.47-1.67,.74-.55,.24-1.1,.51-1.65,.78-.55,.26-1.09,.54-1.63,.82-.5,.25-.99,.52-1.48,.79-.57,.3-1.15,.63-1.71,.96-.51,.29-1.03,.6-1.53,.91-.53,.32-1.05,.65-1.56,.99-.51,.32-1.01,.66-1.51,1-.49,.33-.99,.69-1.48,1.04-1.83,1.3-3.59,2.7-5.28,4.16-.33,.28-.64,.56-.96,.84-1.01,.9-2,1.83-2.95,2.79-.29,.28-.57,.57-.85,.86-.36,.35-.7,.72-1.04,1.09-.31,.31-.6,.64-.9,.97-.08,.08-.15,.15-.21,.23-.3,.33-.61,.68-.9,1.03-.12,.13-.23,.26-.35,.39-.34,.4-.69,.82-1.02,1.23-.39,.46-.76,.94-1.13,1.41-.36,.46-.72,.93-1.06,1.39-.02,.02-.04,.04-.05,.07-.36,.48-.71,.97-1.05,1.45-.35,.49-.7,.99-1.03,1.5-.34,.51-.67,1.01-.99,1.53-.7,1.09-1.36,2.2-2,3.33-.26,.45-.52,.92-.76,1.38-.3,.54-.58,1.08-.85,1.63-.28,.55-.55,1.09-.81,1.65-.27,.56-.52,1.11-.77,1.67-.25,.56-.5,1.12-.73,1.69-.18,.42-.36,.85-.52,1.27-.18,.44-.35,.89-.52,1.33-.06,.16-.12,.32-.18,.48-.18,.47-.35,.96-.51,1.44-.01,.02-.02,.04-.03,.07-.17,.51-.34,1.01-.5,1.52-.03,.07-.05,.15-.08,.23-.14,.45-.28,.92-.42,1.38-.21,.7-.41,1.39-.59,2.11-.14,.53-.28,1.05-.4,1.59-.12,.48-.24,.97-.34,1.46-.06,.22-.11,.45-.15,.69-.09,.39-.17,.8-.25,1.2-.03,.13-.05,.26-.07,.4-.1,.47-.18,.95-.26,1.42-.02,.1-.04,.19-.05,.29-.09,.53-.17,1.05-.24,1.58,0,.03-.02,.07-.02,.11-.08,.58-.16,1.15-.22,1.74-.07,.56-.13,1.11-.18,1.67-.03,.21-.05,.41-.06,.63-.05,.44-.08,.9-.11,1.35h0c-.08,1-.13,1.99-.16,2.99,0,.3-.02,.61-.02,.91-.01,.54-.02,1.07-.02,1.61,0,2.44,.11,4.87,.34,7.25v167.69c0,50.39-33.58,91.24-75,91.24V257.72c1.85-27.86,11.15-53.65,25.91-75.36,6.52,2.92,12.61,6.91,18.14,11.81,15.09-44.26,56.68-76.06,105.61-76.06,61.68,0,111.69,50.52,111.69,112.83Z"/>
  </g>
  <g>
    <path class="cls-2" d="M475.85,418.1c51.38-.71,96.35-27.16,122.84-66.92-6.56-2.8-12.7-6.67-18.3-11.44-14.48,44.01-55.63,76.07-104.56,76.74-61.67,.85-112.37-48.46-113.22-110.14-.84-60.95,47.3-111.16,107.95-113.16,.73-.03,1.46-.05,2.19-.06s1.46-.01,2.19,0c.63,.01,1.26,.02,1.89,.05,.55,.02,1.1,.04,1.65,.09,.59,.03,1.17,.07,1.75,.13,.34,.03,.68,.06,1.01,.1,.38,.03,.75,.07,1.13,.11,1.05,.13,2.11,.26,3.16,.44,.43,.06,.86,.14,1.29,.21,1.04,.18,2.08,.38,3.11,.62,.37,.07,.73,.16,1.09,.24,.39,.09,.77,.18,1.16,.28,.55,.13,1.1,.28,1.65,.44,.63,.17,1.27,.35,1.9,.55,.46,.13,.91,.28,1.37,.43,.65,.2,1.3,.42,1.94,.66,.92,.33,1.85,.67,2.75,1.04,1.07,.43,2.12,.88,3.17,1.37,1.02,.47,2.02,.95,3.02,1.47,.49,.25,.99,.52,1.48,.78,.46,.25,.93,.51,1.38,.76,.04,.02,.07,.04,.11,.07,.96,.55,1.9,1.1,2.81,1.69,.48,.3,.96,.61,1.43,.93,.45,.3,.92,.61,1.36,.93,.41,.28,.83,.57,1.23,.86,.56,.4,1.1,.81,1.65,1.24,.82,.63,1.63,1.28,2.42,1.94,.42,.35,.84,.71,1.27,1.08,.83,.72,1.65,1.47,2.45,2.24,.8,.77,1.59,1.55,2.35,2.35,.39,.4,.76,.81,1.14,1.21,.38,.41,.74,.82,1.11,1.24,.37,.41,.73,.83,1.09,1.26,.36,.43,.71,.86,1.06,1.3,.31,.38,.6,.75,.9,1.14,.4,.5,.78,1.02,1.15,1.53,.32,.44,.63,.88,.95,1.33,.32,.46,.63,.91,.94,1.38,.31,.47,.61,.93,.91,1.4,.59,.94,1.18,1.89,1.73,2.87,.84,1.46,1.63,2.95,2.36,4.48,.68,1.39,1.31,2.79,1.9,4.22,.08,.18,.15,.35,.22,.53,.23,.56,.45,1.11,.65,1.68,.21,.55,.41,1.09,.59,1.65,.16,.43,.31,.88,.44,1.31,.16,.46,.31,.93,.45,1.39,.14,.42,.26,.84,.38,1.26,.08,.3,.17,.61,.25,.91,.13,.45,.24,.9,.35,1.35,.15,.55,.28,1.11,.4,1.66,.12,.48,.21,.95,.31,1.43,.05,.21,.1,.42,.13,.64,.1,.44,.18,.88,.26,1.32v.03c.1,.51,.18,1.01,.26,1.51,.03,.2,.07,.4,.09,.6,.07,.44,.13,.88,.19,1.33,.08,.58,.15,1.16,.21,1.74l-1.7-122.93c-22.15-12.34-47.75-19.22-74.93-18.85-82.83,1.15-149.06,69.23-147.91,152.06,1.15,82.83,69.23,149.06,152.06,147.91Zm147.43-162.23l.28,20.36c.18-3.36,.25-6.76,.2-10.18s-.2-6.82-.48-10.17Z"/>
    <path class="cls-3" d="M362.61,306.83c-.85-61.57,47.28-112.29,107.93-114.3-40.39,1.73-72.32,35.63-71.76,76.73,.58,41.84,34.62,75.29,76.04,74.72,1.97-.03,3.93-.14,5.86-.31,.6-.05,1.21-.12,1.81-.19,1.13-.13,2.25-.28,3.35-.47,.39-.06,.77-.12,1.15-.2,.5-.09,.99-.18,1.49-.27,.39-.09,.79-.16,1.18-.25,.53-.12,1.06-.24,1.58-.37,.34-.08,.67-.16,1-.25,.38-.1,.75-.19,1.13-.3,.1-.02,.2-.05,.3-.07,.56-.16,1.12-.32,1.66-.49,.42-.12,.85-.25,1.26-.39,.34-.11,.67-.21,.99-.33,.78-.25,1.53-.53,2.29-.82,.42-.15,.84-.3,1.24-.47,.47-.18,.94-.37,1.39-.56,.49-.2,.96-.41,1.44-.63,.56-.24,1.11-.49,1.66-.76,.55-.25,1.09-.52,1.64-.8,.55-.27,1.08-.55,1.62-.84,.5-.26,.98-.53,1.47-.81,.57-.31,1.14-.64,1.7-.98,.51-.3,1.02-.61,1.52-.93,.53-.33,1.04-.66,1.55-1.01,.51-.33,1-.67,1.5-1.02,.49-.34,.98-.7,1.47-1.06,1.81-1.33,3.55-2.75,5.22-4.23,.33-.29,.63-.56,.95-.85,1-.91,1.97-1.86,2.91-2.83,.29-.29,.56-.57,.84-.87,.36-.36,.69-.73,1.02-1.11,.31-.32,.59-.64,.89-.98,.08-.08,.15-.15,.21-.24,.3-.34,.6-.69,.89-1.04,.12-.13,.23-.27,.34-.4,.33-.41,.68-.83,1-1.25,.38-.47,.75-.95,1.11-1.43,.35-.47,.71-.94,1.04-1.41,.02-.02,.04-.04,.05-.07,.35-.49,.7-.98,1.03-1.47,.34-.5,.69-1,1.01-1.51,.33-.51,.66-1.02,.97-1.54,.68-1.1,1.33-2.22,1.95-3.36,.25-.46,.51-.93,.74-1.39,.29-.54,.57-1.09,.83-1.64,.27-.55,.53-1.1,.79-1.66,.26-.56,.5-1.12,.75-1.68,.24-.56,.48-1.13,.71-1.7,.17-.43,.35-.85,.5-1.28,.17-.45,.34-.89,.5-1.34,.06-.16,.12-.32,.17-.49,.17-.48,.34-.96,.49-1.45,0-.02,.02-.04,.03-.07,.16-.51,.33-1.01,.48-1.52,.03-.07,.05-.15,.08-.23,.13-.46,.27-.92,.4-1.39,.2-.7,.39-1.4,.56-2.12,.13-.53,.27-1.05,.38-1.59,.11-.49,.23-.97,.32-1.47,.06-.22,.1-.46,.14-.69,.08-.4,.16-.8,.23-1.21,.03-.13,.05-.26,.06-.41,.09-.48,.17-.95,.24-1.43,.02-.1,.04-.19,.05-.29,.08-.53,.16-1.05,.22-1.58,0-.03,.02-.07,.02-.11,.07-.58,.14-1.15,.2-1.74,.06-.56,.11-1.11,.16-1.67,.03-.21,.04-.41,.05-.63,.04-.45,.07-.9,.09-1.36h0c.07-1,.1-1.99,.12-2.99,0-.3,.01-.61,0-.91,0-.54,0-1.07,0-1.61-.03-2.44-.18-4.87-.44-7.25l-2.32-167.67c-.7-50.38,32.32-91.69,73.73-92.27l3.82,276.44c-1.46,27.88-10.41,53.8-24.87,75.71-6.56-2.83-12.7-6.73-18.3-11.56-14.48,44.46-55.62,76.83-104.55,77.51-61.67,.85-112.38-48.97-113.24-111.27Z"/>
  </g>
</svg>