<?xml version="1.0" encoding="UTF-8"?>
<svg id="Layer_1" data-name="Layer 1" xmlns="http://www.w3.org/2000/svg" viewBox="0 0 931.87 467.04">
  <defs>
    <style>
      .cls-1 {
        opacity: .1;
      }

      .cls-1, .cls-2 {
        fill: #231f20;
      }

      .cls-3 {
        fill: #ed976b;
      }

      .cls-4 {
        fill: #e6e7e8;
      }

      .cls-5 {
        fill: #658556;
      }

      .cls-6 {
        fill: #b27150;
      }

      .cls-7 {
        fill: #87b272;
      }
    </style>
  </defs>
  <g>
    <g>
      <path class="cls-2" d="M159.6,134.65c0,49.41-17.71,94.67-47.14,129.8-29.42-35.13-47.14-80.39-47.14-129.8S83.04,39.98,112.46,4.85c29.42,35.13,47.14,80.39,47.14,129.8Z"/>
      <path class="cls-7" d="M159.6,134.65c0,49.41-17.71,94.67-47.14,129.8-29.42-35.13-47.14-80.39-47.14-129.8S83.04,39.98,112.46,4.85c29.42,35.13,47.14,80.39,47.14,129.8Z"/>
      <path class="cls-5" d="M159.6,134.65c0,49.41-17.71,94.67-47.14,129.8V4.85c29.42,35.13,47.14,80.39,47.14,129.8Z"/>
    </g>
    <g>
      <path class="cls-2" d="M108.27,174.22c17.36,46.26,16.68,94.86,1.48,138.08-39.89-22.55-72.38-58.7-89.74-104.96C2.64,161.09,3.32,112.49,18.53,69.26c39.89,22.55,72.38,58.7,89.74,104.96Z"/>
      <path class="cls-7" d="M108.27,174.22c17.36,46.26,16.68,94.86,1.48,138.08-39.89-22.55-72.38-58.7-89.74-104.96C2.64,161.09,3.32,112.49,18.53,69.26c39.89,22.55,72.38,58.7,89.74,104.96Z"/>
      <path class="cls-5" d="M108.27,174.22c17.36,46.26,16.68,94.86,1.48,138.08L18.53,69.26c39.89,22.55,72.38,58.7,89.74,104.96Z"/>
    </g>
    <g>
      <path class="cls-2" d="M206.23,205.96c-15.91,46.78-47.26,83.92-86.43,107.7-16.54-42.73-18.74-91.29-2.82-138.06,15.91-46.78,47.26-83.92,86.43-107.7,16.54,42.73,18.74,91.29,2.82,138.06Z"/>
      <path class="cls-7" d="M206.23,205.96c-15.91,46.78-47.26,83.92-86.43,107.7-16.54-42.73-18.74-91.29-2.82-138.06,15.91-46.78,47.26-83.92,86.43-107.7,16.54,42.73,18.74,91.29,2.82,138.06Z"/>
      <path class="cls-5" d="M206.23,205.96c-15.91,46.78-47.26,83.92-86.43,107.7L203.41,67.9c16.54,42.73,18.74,91.29,2.82,138.06Z"/>
    </g>
  </g>
  <g>
    <g>
      <path class="cls-2" d="M508.55,129.8c0,49.41-17.71,94.67-47.14,129.8-29.42-35.13-47.14-80.39-47.14-129.8S431.99,35.13,461.41,0c29.42,35.13,47.14,80.39,47.14,129.8Z"/>
      <path class="cls-7" d="M508.55,129.8c0,49.41-17.71,94.67-47.14,129.8-29.42-35.13-47.14-80.39-47.14-129.8S431.99,35.13,461.41,0c29.42,35.13,47.14,80.39,47.14,129.8Z"/>
      <path class="cls-5" d="M508.55,129.8c0,49.41-17.71,94.67-47.14,129.8V0c29.42,35.13,47.14,80.39,47.14,129.8Z"/>
    </g>
    <g>
      <path class="cls-2" d="M457.22,169.36c17.36,46.26,16.68,94.86,1.48,138.08-39.89-22.55-72.38-58.7-89.74-104.96-17.36-46.26-16.68-94.86-1.48-138.08,39.89,22.55,72.38,58.7,89.74,104.96Z"/>
      <path class="cls-7" d="M457.22,169.36c17.36,46.26,16.68,94.86,1.48,138.08-39.89-22.55-72.38-58.7-89.74-104.96-17.36-46.26-16.68-94.86-1.48-138.08,39.89,22.55,72.38,58.7,89.74,104.96Z"/>
      <path class="cls-5" d="M457.22,169.36c17.36,46.26,16.68,94.86,1.48,138.08l-91.23-243.04c39.89,22.55,72.38,58.7,89.74,104.96Z"/>
    </g>
    <g>
      <path class="cls-2" d="M555.19,201.11c-15.91,46.78-47.26,83.92-86.43,107.7-16.54-42.73-18.74-91.29-2.82-138.06,15.91-46.78,47.26-83.92,86.43-107.7,16.54,42.73,18.74,91.29,2.82,138.06Z"/>
      <path class="cls-7" d="M555.19,201.11c-15.91,46.78-47.26,83.92-86.43,107.7-16.54-42.73-18.74-91.29-2.82-138.06,15.91-46.78,47.26-83.92,86.43-107.7,16.54,42.73,18.74,91.29,2.82,138.06Z"/>
      <path class="cls-5" d="M555.19,201.11c-15.91,46.78-47.26,83.92-86.43,107.7l83.6-245.77c16.54,42.73,18.74,91.29,2.82,138.06Z"/>
    </g>
  </g>
  <g>
    <path class="cls-3" d="M207.14,277.32l-.82,14.49-8.46,150.07c-.4,7.18-6.34,12.8-13.53,12.8H42.6c-7.19,0-13.13-5.62-13.53-12.8l-8.46-150.07-.82-14.49H207.14Z"/>
    <path class="cls-3" d="M226.93,242.99v29.33c0,2.77-2.24,5-5,5H5c-2.76,0-5-2.23-5-5v-29.33c0-2.76,2.24-5,5-5H221.93c2.76,0,5,2.24,5,5Z"/>
    <polygon class="cls-6" points="207.14 277.32 206.32 291.81 20.61 291.81 19.79 277.32 207.14 277.32"/>
    <path class="cls-1" d="M226.93,242.99v29.33c0,2.77-2.24,5-5,5h-14.79l-.82,14.49-8.46,150.07c-.4,7.18-6.34,12.8-13.53,12.8H113.46V237.99h108.47c2.76,0,5,2.24,5,5Z"/>
  </g>
  <g>
    <path class="cls-3" d="M593.18,352.25c0,46.31-23.82,87.07-59.88,110.67h-144.59c-36.06-23.6-59.88-64.36-59.88-110.67,0-13.01,1.89-25.6,5.39-37.48,2.71-9.2,6.4-17.97,10.95-26.21,5.16-9.38,11.42-18.05,18.62-25.86h194.43c7.2,7.81,13.46,16.48,18.62,25.86,4.55,8.24,8.24,17.01,10.95,26.21,3.51,11.88,5.39,24.47,5.39,37.48Z"/>
    <path class="cls-4" d="M587.79,314.77h-253.57c2.71-9.2,6.4-17.97,10.95-26.21h231.67c4.55,8.24,8.24,17.01,10.95,26.21Z"/>
    <path class="cls-1" d="M593.18,352.25c0,46.31-23.82,87.07-59.88,110.67h-72.29v-200.22h97.21c7.2,7.81,13.46,16.48,18.62,25.86,4.55,8.24,8.24,17.01,10.95,26.21,3.51,11.88,5.39,24.47,5.39,37.48Z"/>
  </g>
  <g>
    <path class="cls-3" d="M912.08,289.68l-.82,14.49-8.46,150.07c-.4,7.18-6.34,12.8-13.53,12.8h-141.73c-7.19,0-13.13-5.62-13.53-12.8l-8.46-150.07-.82-14.49h187.35Z"/>
    <path class="cls-3" d="M931.87,255.35v29.33c0,2.77-2.24,5-5,5h-216.93c-2.76,0-5-2.23-5-5v-29.33c0-2.76,2.24-5,5-5h216.93c2.76,0,5,2.24,5,5Z"/>
    <polygon class="cls-6" points="912.08 289.68 911.26 304.17 725.55 304.17 724.73 289.68 912.08 289.68"/>
    <path class="cls-1" d="M931.87,255.35v29.33c0,2.77-2.24,5-5,5h-14.79l-.82,14.49-8.46,150.07c-.4,7.18-6.34,12.8-13.53,12.8h-70.87V250.35h108.47c2.76,0,5,2.24,5,5Z"/>
  </g>
  <rect class="cls-7" x="811.79" y="145.98" width="13.55" height="104.37"/>
  <g>
    <path class="cls-2" d="M849.14,145.88c-8.56,10.6-21.62,16.09-36.39,16.61-2.6-14.54,0-28.47,8.56-39.07,8.56-10.6,21.62-16.09,36.39-16.61,2.6,14.54,0,28.47-8.56,39.07Z"/>
    <path class="cls-7" d="M849.14,145.88c-8.56,10.6-21.62,16.09-36.39,16.61-2.6-14.54,0-28.47,8.56-39.07,8.56-10.6,21.62-16.09,36.39-16.61,2.6,14.54,0,28.47-8.56,39.07Z"/>
    <path class="cls-5" d="M849.14,145.88c-8.56,10.6-21.62,16.09-36.39,16.61l44.95-55.68c2.6,14.54,0,28.47-8.56,39.07Z"/>
  </g>
  <g>
    <path class="cls-2" d="M808.59,184.16c10.67,8.46,16.27,21.48,16.92,36.24-14.52,2.73-28.47,.24-39.14-8.23-10.67-8.46-16.27-21.48-16.92-36.24,14.52-2.73,28.47-.24,39.14,8.23Z"/>
    <path class="cls-7" d="M808.59,184.16c10.67,8.46,16.27,21.48,16.92,36.24-14.52,2.73-28.47,.24-39.14-8.23-10.67-8.46-16.27-21.48-16.92-36.24,14.52-2.73,28.47-.24,39.14,8.23Z"/>
    <path class="cls-5" d="M808.59,184.16c10.67,8.46,16.27,21.48,16.92,36.24l-56.07-44.47c14.52-2.73,28.47-.24,39.14,8.23Z"/>
  </g>
</svg>